<svg width="300" height="264" viewBox="0 0 300 264" fill="none" xmlns="http://www.w3.org/2000/svg">
<path d="M54.8 264V27.2L6.8 54L2.98023e-07 38.4L59.6 3.99999H83.6V264H54.8ZM144.856 240C150.99 237.6 163.656 227.2 182.856 208.8C202.323 190.4 220.056 169.2 236.056 145.2C252.056 120.933 260.056 97.6 260.056 75.2C260.056 56.2667 256.19 42.4 248.456 33.6C240.99 24.5333 228.056 20 209.656 20C200.856 20 192.19 21.6 183.656 24.8C175.39 28 168.19 31.6 162.056 35.6C155.923 39.6 152.856 41.7333 152.856 42L149.656 24C149.656 23.4666 152.856 21.2 159.256 17.2C165.923 12.9333 174.056 9.06666 183.656 5.59999C193.256 2.13332 203.39 0.399984 214.056 0.399984C240.723 0.399984 260.323 6.93332 272.856 20C285.656 32.8 292.056 50.4 292.056 72.8C292.056 101.6 280.056 130.533 256.056 159.6C232.056 188.4 205.523 214.133 176.456 236.8H299.256V264H144.856V240Z" fill="white"/>
</svg>
