<svg width="300" height="264" viewBox="0 0 300 264" fill="none" xmlns="http://www.w3.org/2000/svg">
<path d="M245.2 264V27.2L293.2 54L300 38.4L240.4 3.99999H216.4V264H245.2ZM155.144 240C149.01 237.6 136.344 227.2 117.144 208.8C97.6771 190.4 79.9437 169.2 63.9437 145.2C47.9437 120.933 39.9437 97.6 39.9437 75.2C39.9437 56.2667 43.8104 42.4 51.5437 33.6C59.0104 24.5333 71.9437 20 90.3437 20C99.1437 20 107.81 21.6 116.344 24.8C124.61 28 131.81 31.6 137.944 35.6C144.077 39.6 147.144 41.7333 147.144 42L150.344 24C150.344 23.4666 147.144 21.2 140.744 17.2C134.077 12.9333 125.944 9.06666 116.344 5.59999C106.744 2.13332 96.6104 0.399984 85.9437 0.399984C59.2771 0.399984 39.6771 6.93332 27.1437 20C14.3437 32.8 7.94374 50.4 7.94374 72.8C7.94374 101.6 19.9437 130.533 43.9437 159.6C67.9437 188.4 94.4771 214.133 123.544 236.8H0.743742V264H155.144V240Z" fill="white"/>
</svg>
