<svg width="194" height="713" viewBox="0 0 194 713" fill="none" xmlns="http://www.w3.org/2000/svg">
<path d="M10.8604 18.2097C9.28222 13.4025 6.7445 7.02416 4.41953 5.18023C20.7527 5.25454 44.4237 4.36222 42.9191 5.35542C38.3291 8.3855 32.3601 18.3075 25.8397 22.7779C19.3193 27.2483 28.902 338.795 30.8292 354.804C32.7564 370.813 29.2177 379.297 35.1631 391.324C41.1084 403.351 43.1141 423.996 24.0017 426.774C3.98825 429.683 0.0452012 417.165 0.0747815 410.665C0.131119 398.285 9.21345 380.206 13.793 362.727C18.3726 345.247 12.8331 24.2187 10.8604 18.2097Z" fill="black"/>
<path d="M169.432 22.7291C170.965 14.6604 173.449 3.95346 175.774 0.853782C159.274 1.02328 135.349 -0.40865 136.881 1.25337C141.557 6.3239 147.712 22.9522 154.356 30.4336C161 37.915 155.256 560.578 153.511 587.439C151.766 614.3 155.449 628.523 149.594 648.715C143.74 668.908 128.765 686.084 150.171 704.908C172.091 724.184 193.503 700.963 193.349 685.964C193.175 669.053 175.67 629.993 170.822 600.683C165.975 571.373 167.515 32.815 169.432 22.7291Z" fill="black"/>
</svg>
