<svg width="625" height="130" viewBox="0 0 625 130" fill="none" xmlns="http://www.w3.org/2000/svg">
<path d="M0.000366211 28.2352C62.8764 43.4039 98.1234 43.4847 161 28.2352C266.938 -8.94548 336.218 -7.19992 474 28.2352C532 43.1518 561.141 51.3082 625 28.2352V115.235C569.612 133.88 536.414 133.698 474 115.235C344.869 77.2978 275.949 73.8956 161 115.235C94.6737 133.385 59.3097 133.978 0.000366211 115.235V28.2352Z" fill="white"/>
<path d="M40.232 54.5772L11.8057 51.3582L11.46 54.4107L23.2248 55.7429L18.8897 94.0263L23.7228 94.5736L28.058 56.2902L39.8864 57.6296L40.232 54.5772Z" fill="black"/>
<path d="M84.4649 59.5843L79.6293 59.0599L75.1444 100.417L79.9801 100.942L84.4649 59.5843ZM55.8986 76.0566C62.4522 76.7672 65.9095 79.9103 65.1919 86.5275C64.4674 93.2083 60.7502 96.024 53.9421 95.2857L48.9156 94.7406L50.9993 75.5253L55.8986 76.0566ZM43.7763 97.0158L53.7658 98.0991C63.7552 99.1824 69.2356 94.9485 70.105 86.9315C70.9812 78.8509 65.6052 74.4054 56.1884 73.3842L51.2891 72.8529L53.0968 56.1827L48.2612 55.6583L43.7763 97.0158Z" fill="black"/>
<path d="M133.777 61.6797L133.987 58.5612C133.987 58.5612 127.981 55.7281 121.434 56.5035C110.63 57.7833 104.632 67.0007 106.198 80.2203C107.742 93.2493 115.348 100.34 126.788 98.9847C136.576 97.8253 139.707 89.9786 139.707 89.9786L137.686 88.1556C137.686 88.1556 134.611 94.8357 126.984 95.7391C118.658 96.7253 112.762 91.559 111.331 79.4834C109.886 67.2808 114.248 60.5772 122.319 59.6211C127.912 58.9586 133.777 61.6797 133.777 61.6797Z" fill="black"/>
<path d="M163.906 49.2055L135.916 55.1205L136.551 58.1261L148.135 55.6781L156.101 93.3736L160.86 92.3679L152.894 54.6724L164.541 52.2112L163.906 49.2055Z" fill="black"/>
<path d="M180.787 47.4686L194.627 66.5835L180.754 71.1075L180.787 47.4686ZM177.75 44.5546L177.321 88.4502L180.546 87.3986L180.715 73.88L196.231 68.8203L204.337 79.6404L209.144 78.0728L183.165 42.7886L177.75 44.5546Z" fill="black"/>
<path d="M210.708 34.5858C217.065 59.9783 217.006 72.66 211.295 74.0898C210.426 74.3074 209.68 74.23 209.68 74.23L210.333 77.6292C210.333 77.6292 211.172 77.8152 212.972 77.3645C219.863 75.6394 220.899 61.8553 214.682 36.7577L226.478 33.8047L235.835 71.1794L240.491 70.0138L230.389 29.659L210.708 34.5858Z" fill="black"/>
<path d="M266.815 42.3468L264.981 26.4523L270.385 25.8287C275.344 25.2564 279.247 27.2541 279.871 32.6583C280.612 39.0797 276.479 41.2316 274.318 41.4811L266.815 42.3468ZM274.873 44.0584C279.45 43.5302 283.226 45.5426 283.886 51.2646C284.598 57.4317 281.439 60.7598 274.572 61.5522L269.104 62.1832L267.116 44.9535L274.873 44.0584ZM264.595 65.5382L275.086 64.3276C285.322 63.1464 289.52 58.2166 288.677 50.9051C288.06 45.5645 284.429 42.5691 279.577 41.8404C282.326 39.9771 285.048 36.7639 284.475 31.8048C283.786 25.8285 278.773 22.0261 270.253 23.0092L259.826 24.2124L264.595 65.5382Z" fill="black"/>
<path d="M307.244 24.1828L314.823 46.532L300.233 46.7581L307.244 24.1828ZM305.203 20.502L291.833 62.3141L295.225 62.2616L299.378 49.3957L315.696 49.1428L320.246 61.8739L325.301 61.7955L310.898 20.4137L305.203 20.502Z" fill="black"/>
<path d="M375.8 24.3131L370.194 23.7775L352.214 57.8704L352.151 57.8643L340.951 20.9842L335.026 20.4183L335.071 20.6155L334.962 20.4122L330.815 61.8054L334.319 62.1401L337.836 26.6658L348.845 63.5277L352.731 63.8989L370.456 29.7817L370.52 29.7878L367.321 65.2925L372.036 65.7429L375.8 24.3131Z" fill="black"/>
<path d="M418.63 31.6974L391.287 26.809L383.966 67.7597L388.754 68.6158L395.535 30.6891L413.301 33.8654L406.52 71.792L411.308 72.6481L418.63 31.6974Z" fill="black"/>
<path d="M459.233 40.5838L454.8 39.5869L454.333 40.2036L426.95 69.7973L426.888 69.7832L427.663 67.7929L435.006 35.1363L430.261 34.0692L421.135 74.6559L425.63 75.6667L426.097 75.0501L453.404 45.5048L453.466 45.5188L452.697 47.773L445.424 80.1174L450.107 81.1704L459.233 40.5838Z" fill="black"/>
<path d="M480.279 48.7131C485.615 50.0609 488.136 53.9321 486.318 61.1301C484.234 69.3829 479.667 70.7378 474.951 69.5468L470.545 68.434L475.811 47.5847L480.279 48.7131ZM461.598 83.9968L466.314 85.1879L469.887 71.0402L474.975 72.3253C481.18 73.8925 488.79 72.25 491.329 62.1977C493.492 53.6346 489.594 48.1613 481.465 46.1083L471.785 43.6634L461.598 83.9968Z" fill="black"/>
<path d="M526.131 78.6591C523.4 90.3113 517.53 95.4431 509.554 93.5737C501.64 91.7188 498.724 84.5276 501.456 72.8754C504.172 61.2855 510.071 56.0291 517.923 57.8693C525.836 59.7242 528.847 67.0692 526.131 78.6591ZM531.178 79.8422C534.187 67.006 529.591 57.4489 518.624 54.8784C507.719 52.3225 499.417 58.8563 496.408 71.6924C493.385 84.5908 497.948 94.0087 508.853 96.5646C519.82 99.1351 528.155 92.7406 531.178 79.8422Z" fill="black"/>
<path d="M582.347 62.4626L576.716 62.3347L561.255 97.6407L561.191 97.6393L547.348 61.6677L541.397 61.5325L541.457 61.7259L541.333 61.5311L540.197 103.116L543.716 103.196L544.653 67.56L558.304 103.527L562.207 103.616L577.413 68.3041L577.477 68.3055L576.859 103.949L581.594 104.056L582.347 62.4626Z" fill="black"/>
<path d="M601.312 95.7894C600.67 96.363 600.411 97.1941 600.408 97.9621C600.405 98.794 600.658 99.563 601.296 100.141C601.87 100.656 602.573 100.914 603.277 100.917C603.981 100.919 604.75 100.666 605.328 100.156C605.906 99.5826 606.165 98.8156 606.168 97.9836C606.171 97.2156 605.918 96.3826 605.344 95.8045C604.77 95.2903 604.003 95.0315 603.299 95.0288C602.595 95.0262 601.89 95.2796 601.312 95.7894ZM606.083 52.3509L600.899 52.3316L600.879 57.6435L601.922 86.7676L604.738 86.7782L606.063 57.6629L606.083 52.3509Z" fill="black"/>
</svg>
