<svg width="114" height="225" viewBox="0 0 114 225" fill="none" xmlns="http://www.w3.org/2000/svg">
<path d="M0.921424 196.885L0.921462 224.5H62.5753H110.506C110.506 207.5 116.297 196.23 110.506 193.609C103.268 190.334 78.1288 185.076 72.6029 179.905C68.1821 175.768 70.7609 152.036 72.6029 140.688C84.2463 137.999 92.7609 126.696 95.5628 121.381C111.751 65.2702 96.8859 30.2765 95.5628 25.0188C94.2397 19.7611 84.0439 4.76375 58.0486 0.454174C32.0534 -3.8554 18.8223 23.6397 15.4756 34.9308C12.129 46.2219 11.195 98.7125 18.8223 118.968C26.4497 139.223 45.7515 137.413 47.8529 140.688C49.9543 143.963 49.9543 155.34 47.8529 173.785C45.7515 192.23 0.921465 179.926 0.921424 196.885Z" fill="white" fill-opacity="0.73"/>
</svg>
