<svg width="134" height="232" viewBox="0 0 134 232" fill="none" xmlns="http://www.w3.org/2000/svg">
<path d="M127.936 195.842C137.084 206.336 133.335 213.681 132.723 232H0C2.8934 209.309 4.21028 195.19 10.4199 192.584C18.182 189.326 45.1407 184.096 51.0665 178.952C55.8073 174.837 53.0418 151.231 51.0665 139.943C38.5804 137.268 29.4496 126.025 26.4449 120.738C9.08453 64.9246 25.026 30.1161 26.4449 24.8863C27.8638 19.6564 38.7975 4.73852 66.6742 0.451768C94.5509 -3.83499 108.74 23.5145 112.329 34.7458C115.917 45.9771 116.919 98.1898 108.74 118.338C100.56 138.485 79.8614 136.685 77.6079 139.943C75.3544 143.201 75.3544 154.518 77.6079 172.865C79.8614 191.212 116.502 182.725 127.936 195.842Z" fill="#FF005C" fill-opacity="0.26"/>
<path d="M55 52.4165C48.6449 45.8176 31.5477 36.1475 14 50.258C19.1223 57.1036 34.4936 67.1191 55 52.4165Z" fill="white"/>
<path d="M79 52.4165C84.7351 45.8176 100.164 36.1475 116 50.258C111.377 57.1036 97.5058 67.1191 79 52.4165Z" fill="white"/>
<ellipse cx="35" cy="51.5" rx="4" ry="4.5" fill="black"/>
<ellipse cx="98" cy="51.5" rx="4" ry="4.5" fill="black"/>
</svg>
