<svg width="114" height="368" viewBox="0 0 114 368" fill="none" xmlns="http://www.w3.org/2000/svg">
<path d="M2.34619 196.885C-6.18398 207.435 11.247 349.584 11.8178 368H68.0556H111.931C109.233 345.188 117.721 196.23 111.931 193.609C104.693 190.334 79.5536 185.076 74.0276 179.905C69.6069 175.768 72.1857 152.036 74.0276 140.688C85.671 137.999 94.1856 126.696 96.9875 121.381C113.176 65.2702 98.3106 30.2765 96.9875 25.0188C95.6644 19.7611 85.4686 4.76375 59.4734 0.454174C33.4782 -3.8554 20.2471 23.6397 16.9004 34.9308C13.5537 46.2219 12.6198 98.7125 20.2471 118.968C27.8744 139.223 47.1763 137.413 49.2777 140.688C51.3791 143.963 51.3791 155.34 49.2777 173.785C47.1763 192.23 13.0089 183.697 2.34619 196.885Z" fill="white"/>
</svg>
