<svg width="143" height="465" viewBox="0 0 143 465" fill="none" xmlns="http://www.w3.org/2000/svg">
<path d="M2.45354 209.703C-7.17741 220.94 14.6084 445.385 15.2528 465H77.691H143C139.954 440.703 132.717 209.006 126.18 206.215C118.007 202.726 89.6241 197.126 83.3851 191.618C78.3939 187.212 81.3055 161.935 83.3851 149.848C96.531 146.983 106.144 134.945 109.308 129.284C127.586 69.5198 110.802 32.2477 109.308 26.6477C107.814 21.0477 96.3025 5.0739 66.9528 0.483743C37.603 -4.10642 22.6645 25.1788 18.8859 37.205C15.1073 49.2313 14.0529 105.139 22.6645 126.713C31.2761 148.287 53.0687 146.359 55.4413 149.848C57.8139 153.336 57.8139 165.454 55.4413 185.1C53.0687 204.746 14.4922 195.657 2.45354 209.703Z" fill="#FF005C"/>
</svg>
